<svg width="864" height="1024" viewBox="0 0 864 1024" fill="none" xmlns="http://www.w3.org/2000/svg">
<rect width="720" height="1024" fill="#2C6AFF"/>
<g clip-path="url(#clip0_39_732)">
<path d="M626.38 1134.85L511.112 704.659C507.61 691.59 515.366 678.157 528.434 674.656L746.373 616.259C759.442 612.757 772.875 620.513 776.377 633.582L891.645 1063.77C895.147 1076.84 887.391 1090.27 874.322 1093.77L656.384 1152.17C643.315 1155.67 629.882 1147.92 626.38 1134.85Z" fill="#4079FF"/>
<path d="M81.3463 390.842L-8.01572 57.3381C-11.5175 44.2692 -3.76187 30.836 9.30698 27.3343L531.821 -112.673C544.89 -116.175 558.323 -108.419 561.825 -95.3502L651.187 238.154C654.689 251.223 646.933 264.656 633.864 268.158L111.35 408.165C98.2813 411.666 84.8481 403.911 81.3463 390.842Z" fill="#4079FF"/>
<path d="M83.8554 529.445L8.66727 248.839C5.16548 235.77 12.9211 222.337 25.99 218.835L658.022 49.4825C671.091 45.9807 684.524 53.7363 688.026 66.8052L763.214 347.411C766.716 360.48 758.96 373.913 745.892 377.415L113.859 546.767C100.79 550.269 87.3572 542.513 83.8554 529.445Z" fill="#2C6AFF"/>
<path d="M86.2001 1225.75L29.619 1014.58C26.1172 1001.51 33.8728 988.081 46.9417 984.58L468.818 871.538C481.887 868.036 495.32 875.792 498.822 888.861L555.403 1100.02C558.905 1113.09 551.149 1126.53 538.081 1130.03L116.204 1243.07C103.135 1246.57 89.7019 1238.82 86.2001 1225.75Z" fill="#2C6AFF"/>
<path d="M263.124 756.632L109.211 797.873C96.1425 801.375 82.7093 793.619 79.2075 780.55L23.1222 571.237C19.6205 558.168 27.3761 544.735 40.4449 541.233L194.358 499.992C207.427 496.491 220.86 504.246 224.362 517.315L280.447 726.628C283.949 739.697 276.193 753.13 263.124 756.632Z" fill="#326FFF"/>
<path d="M-364.085 953.195L-439.273 672.589C-442.775 659.52 -435.019 646.087 -421.95 642.585L21.4125 523.787C34.4813 520.285 47.9145 528.04 51.4163 541.109L126.604 821.715C130.106 834.784 122.35 848.217 109.282 851.719L-334.081 970.518C-347.15 974.019 -360.583 966.264 -364.085 953.195Z" fill="#3C76FF"/>
<path d="M-71.9833 83.0224L-132.305 -142.1C-135.807 -155.169 -128.051 -168.602 -114.982 -172.104L245.361 -268.657C258.43 -272.159 271.863 -264.404 275.365 -251.335L335.686 -26.2122C339.188 -13.1433 331.432 0.289843 318.363 3.79163L-41.9795 100.345C-55.0484 103.847 -68.4815 96.0913 -71.9833 83.0224Z" fill="#326DF9"/>
<path d="M219.337 821.321L181.337 679.505C177.835 666.436 185.591 653.003 198.66 649.501L434.35 586.348C447.419 582.846 460.852 590.602 464.354 603.671L502.354 745.487C505.856 758.556 498.1 771.989 485.031 775.491L249.34 838.644C236.271 842.145 222.838 834.39 219.337 821.321Z" fill="#4179FF"/>
<path d="M-82.2017 1185.97L-132.305 998.986C-135.807 985.917 -128.051 972.484 -114.982 968.982L120.709 905.829C133.778 902.327 147.211 910.082 150.712 923.151L200.815 1110.14C204.317 1123.21 196.562 1136.64 183.493 1140.14L-52.1979 1203.3C-65.2668 1206.8 -78.6999 1199.04 -82.2017 1185.97Z" fill="#326FFF"/>
<path d="M377.383 965.657L351.504 869.073C348.002 856.004 355.757 842.571 368.826 839.069L536.834 794.052C549.903 790.55 563.336 798.305 566.838 811.374L592.718 907.958C596.219 921.027 588.464 934.46 575.395 937.962L407.387 982.98C394.318 986.481 380.885 978.726 377.383 965.657Z" fill="#326FFF"/>
<path d="M260.664 1068.56L253.074 1040.23C249.573 1027.17 257.328 1013.73 270.397 1010.23L336.267 992.581C349.336 989.079 362.769 996.834 366.271 1009.9L373.86 1038.23C377.362 1051.3 369.606 1064.73 356.537 1068.23L290.667 1085.88C277.599 1089.38 264.165 1081.63 260.664 1068.56Z" fill="#326FFF"/>
<path d="M580.979 1008.5L573.389 980.175C569.888 967.106 577.643 953.673 590.712 950.171L656.582 932.521C669.651 929.02 683.084 936.775 686.585 949.844L694.175 978.168C697.676 991.237 689.921 1004.67 676.852 1008.17L610.982 1025.82C597.914 1029.32 584.48 1021.57 580.979 1008.5Z" fill="#326FFF"/>
<path d="M431.946 1165.67L396.548 1033.56C393.046 1020.49 400.802 1007.06 413.871 1003.56L525.411 973.67C538.48 970.168 551.913 977.924 555.415 990.993L590.813 1123.1C594.315 1136.17 586.559 1149.6 573.49 1153.1L461.95 1182.99C448.881 1186.49 435.448 1178.74 431.946 1165.67Z" fill="#4078FF"/>
<path d="M667.647 913.092L639.323 920.682C626.255 924.183 612.821 916.428 609.32 903.359L583.399 806.62C579.897 793.551 587.652 780.118 600.721 776.616L629.045 769.027C642.114 765.525 655.547 773.281 659.048 786.35L684.97 883.089C688.471 896.157 680.716 909.591 667.647 913.092Z" fill="#326FFF"/>
<path d="M698.8 712.589L544.887 753.829C531.819 757.331 518.385 749.576 514.884 736.507L504.154 696.463C500.652 683.394 508.408 669.961 521.477 666.459L675.389 625.218C688.458 621.716 701.891 629.472 705.393 642.541L716.123 682.585C719.625 695.654 711.869 709.087 698.8 712.589Z" fill="#326FFF"/>
<path d="M483.343 629.177L437.422 457.796C433.92 444.727 441.676 431.294 454.745 427.792L734.672 352.785C747.741 349.284 761.174 357.039 764.676 370.108L810.598 541.489C814.099 554.558 806.344 567.991 793.275 571.493L513.347 646.499C500.278 650.001 486.845 642.246 483.343 629.177Z" fill="#2464FF"/>
<path d="M545.724 109.966L482.466 -126.115C478.964 -139.184 486.72 -152.617 499.789 -156.119L779.717 -231.126C792.786 -234.627 806.219 -226.872 809.721 -213.803L872.978 22.2783C876.48 35.3472 868.725 48.7803 855.656 52.2821L575.728 127.289C562.659 130.79 549.226 123.035 545.724 109.966Z" fill="#2C67F1"/>
<path d="M805.98 921.6L742.722 685.519C739.22 672.45 746.976 659.017 760.045 655.515L1039.97 580.509C1053.04 577.007 1066.47 584.763 1069.98 597.832L1133.23 833.913C1136.74 846.982 1128.98 860.415 1115.91 863.917L835.983 938.923C822.915 942.425 809.481 934.669 805.98 921.6Z" fill="#2C67F1"/>
<path d="M617.462 442.797L554.204 206.715C550.702 193.647 558.458 180.213 571.527 176.712L974.779 68.6605C987.848 65.1587 1001.28 72.9144 1004.78 85.9832L1068.04 322.064C1071.54 335.133 1063.79 348.566 1050.72 352.068L647.465 460.119C634.396 463.621 620.963 455.866 617.462 442.797Z" fill="#2F6CFC"/>
<path d="M750.925 1156L687.668 919.916C684.166 906.847 691.922 893.414 704.99 889.912L984.918 814.906C997.987 811.404 1011.42 819.16 1014.92 832.228L1078.18 1068.31C1081.68 1081.38 1073.93 1094.81 1060.86 1098.31L780.929 1173.32C767.86 1176.82 754.427 1169.07 750.925 1156Z" fill="#2F6CFC"/>
<path d="M187.665 978.332L171.327 917.358C167.825 904.289 175.581 890.856 188.65 887.355L303.375 856.614C316.444 853.112 329.877 860.868 333.379 873.937L349.717 934.911C353.219 947.979 345.463 961.413 332.394 964.914L217.669 995.655C204.6 999.157 191.167 991.401 187.665 978.332Z" fill="#4078FF"/>
</g>
<path d="M533.099 343.574C545.011 346.459 557.003 339.125 559.883 327.192C562.763 315.259 555.441 303.247 543.529 300.362C531.617 297.477 519.626 304.811 516.745 316.744C513.865 328.677 521.187 340.689 533.099 343.574Z" stroke="#F9E428" stroke-width="10" stroke-linejoin="round" stroke-dasharray="2 8"/>
<path d="M170.499 418.52C179.086 416.816 184.669 408.462 182.969 399.86C181.268 391.258 172.929 385.666 164.342 387.369C155.755 389.072 150.172 397.426 151.872 406.028C153.572 414.63 161.912 420.223 170.499 418.52Z" stroke="#F9E428" stroke-width="10" stroke-linejoin="round" stroke-dasharray="2 5"/>
<path fill-rule="evenodd" clip-rule="evenodd" d="M533.453 459.416C538.533 459.777 542.277 461.015 542.277 462.485C542.277 463.956 538.533 465.194 533.453 465.555C533.092 470.643 531.857 474.394 530.389 474.394C528.92 474.394 527.685 470.643 527.325 465.555C522.244 465.194 518.501 463.956 518.501 462.485C518.501 461.015 522.244 459.777 527.325 459.416C527.685 454.327 528.92 450.577 530.389 450.577C531.857 450.577 533.092 454.327 533.453 459.416Z" fill="#B7CCFF"/>
<path fill-rule="evenodd" clip-rule="evenodd" d="M166.522 521.339C171.602 521.7 175.346 522.938 175.346 524.408C175.346 525.879 171.602 527.117 166.522 527.477C166.161 532.566 164.926 536.316 163.458 536.316C161.99 536.316 160.755 532.566 160.394 527.477C155.313 527.117 151.57 525.879 151.57 524.408C151.57 522.938 155.314 521.7 160.394 521.339C160.755 516.25 161.99 512.5 163.458 512.5C164.926 512.5 166.161 516.25 166.522 521.339Z" fill="#B7CCFF"/>
<path fill-rule="evenodd" clip-rule="evenodd" d="M394.715 259.407C397.086 259.575 398.833 260.153 398.833 260.839C398.833 261.526 397.086 262.103 394.715 262.271C394.547 264.646 393.97 266.396 393.285 266.396C392.601 266.396 392.024 264.646 391.856 262.271C389.484 262.103 387.738 261.526 387.738 260.839C387.738 260.153 389.484 259.575 391.856 259.407C392.024 257.032 392.601 255.282 393.285 255.282C393.97 255.282 394.547 257.032 394.715 259.407Z" fill="#B7CCFF"/>
<path d="M147.608 491.859C149.796 491.859 151.57 490.082 151.57 487.89C151.57 485.697 149.796 483.92 147.608 483.92C145.419 483.92 143.645 485.697 143.645 487.89C143.645 490.082 145.419 491.859 147.608 491.859Z" fill="#F44D8D"/>
<path d="M554.957 499.798C557.145 499.798 558.919 498.021 558.919 495.829C558.919 493.636 557.145 491.859 554.957 491.859C552.768 491.859 550.994 493.636 550.994 495.829C550.994 498.021 552.768 499.798 554.957 499.798Z" fill="#F44D8D"/>
<path d="M469.366 328.319C470.679 328.319 471.744 327.253 471.744 325.938C471.744 324.622 470.679 323.556 469.366 323.556C468.053 323.556 466.989 324.622 466.989 325.938C466.989 327.253 468.053 328.319 469.366 328.319Z" fill="#F44D8D"/>
<path d="M211.006 493.401L273.924 534.916L300.429 494.642L237.475 453.132C235.4 451.758 233.074 450.809 230.631 450.336C228.188 449.864 225.676 449.882 223.239 450.383C220.802 450.887 218.489 451.866 216.432 453.265C214.375 454.666 212.614 456.458 211.251 458.541L205.603 467.12C204.231 469.2 203.282 471.529 202.811 473.976C202.34 476.423 202.355 478.939 202.857 481.38C203.359 483.822 204.337 486.14 205.735 488.202C207.134 490.265 208.925 492.03 211.006 493.401Z" fill="#3FEFAC"/>
<path d="M465.693 451.925C463.598 451.525 461.446 451.543 459.358 451.976C457.269 452.409 455.288 453.249 453.525 454.45C451.761 455.65 450.252 457.187 449.084 458.972C447.914 460.756 447.108 462.754 446.71 464.851C446.312 466.949 446.331 469.103 446.765 471.193C447.201 473.284 448.041 475.269 449.243 477.034C450.442 478.8 451.978 480.311 453.761 481.483C455.546 482.655 457.542 483.463 459.637 483.863C468.474 485.548 487.231 481.705 488.901 472.898C490.572 464.091 474.53 453.61 465.693 451.925Z" fill="#F44D8D"/>
<path opacity="0.2" d="M455.402 449.963C453.307 449.562 451.154 449.58 449.067 450.013C446.978 450.447 444.996 451.287 443.234 452.487C441.47 453.687 439.961 455.224 438.793 457.009C437.623 458.794 436.816 460.791 436.418 462.889C436.02 464.984 436.039 467.141 436.474 469.23C436.908 471.321 437.75 473.306 438.951 475.071C440.151 476.837 441.687 478.349 443.47 479.52C445.255 480.692 447.25 481.5 449.346 481.9C458.182 483.585 476.939 479.743 478.61 470.935C480.28 462.126 464.262 451.652 455.402 449.963Z" fill="#2C374C"/>
<path d="M460.817 477.645C458.721 477.245 456.569 477.263 454.481 477.696C452.392 478.13 450.411 478.97 448.648 480.17C446.884 481.37 445.375 482.907 444.207 484.692C443.037 486.477 442.231 488.474 441.833 490.571C441.435 492.667 441.454 494.823 441.888 496.913C442.324 499.004 443.164 500.989 444.366 502.754C445.566 504.52 447.101 506.032 448.885 507.203C450.669 508.375 452.665 509.183 454.76 509.583C463.597 511.268 482.354 507.426 484.024 498.618C485.695 489.809 469.653 479.33 460.817 477.645Z" fill="#F44D8D"/>
<path opacity="0.2" d="M450.525 475.683C448.43 475.283 446.277 475.3 444.19 475.734C442.101 476.167 440.119 477.007 438.357 478.207C436.593 479.408 435.084 480.945 433.916 482.728C432.746 484.512 431.939 486.511 431.541 488.607C431.143 490.705 431.162 492.861 431.597 494.95C432.031 497.041 432.873 499.026 434.074 500.79C435.274 502.556 436.81 504.069 438.593 505.239C440.378 506.411 442.373 507.221 444.469 507.621C453.305 509.305 472.062 505.463 473.733 496.656C475.402 487.847 459.385 477.372 450.525 475.683Z" fill="#2C374C"/>
<path d="M455.928 503.424C453.808 502.959 451.617 502.926 449.484 503.323C447.35 503.72 445.318 504.541 443.508 505.738C441.698 506.933 440.146 508.481 438.943 510.29C437.742 512.097 436.914 514.128 436.509 516.262C436.105 518.395 436.131 520.588 436.588 522.713C437.044 524.837 437.921 526.847 439.167 528.627C440.413 530.407 442.002 531.918 443.841 533.073C445.681 534.229 447.732 535.002 449.874 535.351C458.71 537.036 477.467 533.193 479.138 524.386C480.808 515.577 464.765 505.111 455.928 503.424Z" fill="#F44D8D"/>
<path opacity="0.2" d="M445.637 501.462C443.518 500.997 441.325 500.962 439.192 501.359C437.059 501.757 435.027 502.578 433.217 503.774C431.406 504.971 429.855 506.519 428.653 508.326C427.45 510.134 426.623 512.165 426.219 514.299C425.813 516.431 425.84 518.626 426.296 520.75C426.753 522.873 427.631 524.885 428.877 526.665C430.123 528.444 431.712 529.956 433.551 531.11C435.39 532.265 437.441 533.039 439.584 533.387C448.42 535.073 467.175 531.231 468.846 522.422C470.517 513.615 454.497 503.151 445.637 501.462Z" fill="#2C374C"/>
<path d="M451.042 529.192C446.81 528.386 442.434 529.294 438.872 531.717C435.312 534.141 432.862 537.882 432.058 542.118C431.254 546.353 432.166 550.735 434.591 554.301C437.014 557.866 440.753 560.324 444.985 561.13C453.822 562.815 472.579 558.972 474.249 550.165C475.919 541.358 459.878 530.877 451.042 529.192Z" fill="#F44D8D"/>
<path opacity="0.2" d="M440.75 527.23C436.518 526.422 432.142 527.33 428.58 529.754C425.021 532.179 422.57 535.92 421.766 540.156C420.963 544.39 421.874 548.773 424.299 552.339C426.723 555.903 430.462 558.359 434.694 559.168C443.53 560.852 462.287 557.01 463.958 548.203C465.627 539.394 449.61 528.919 440.75 527.23Z" fill="#2C374C"/>
<path d="M446.169 554.889C444.049 554.423 441.858 554.389 439.725 554.785C437.591 555.182 435.559 556.003 433.749 557.2C431.939 558.398 430.387 559.946 429.184 561.753C427.983 563.559 427.155 565.59 426.75 567.724C426.346 569.858 426.372 572.052 426.829 574.177C427.285 576.3 428.162 578.311 429.409 580.091C430.655 581.87 432.243 583.383 434.082 584.537C435.922 585.691 437.973 586.466 440.115 586.814C448.951 588.5 467.708 584.658 469.375 575.861C471.044 567.065 455.006 556.573 446.169 554.889Z" fill="#F44D8D"/>
<path opacity="0.2" d="M435.878 552.924C433.757 552.461 431.567 552.426 429.433 552.823C427.3 553.22 425.268 554.041 423.458 555.238C421.648 556.433 420.096 557.981 418.893 559.79C417.691 561.597 416.864 563.628 416.458 565.761C416.054 567.895 416.081 570.09 416.537 572.213C416.994 574.337 417.87 576.349 419.116 578.127C420.362 579.907 421.952 581.418 423.79 582.574C425.631 583.729 427.682 584.503 429.823 584.851C438.659 586.536 457.417 582.693 459.084 573.897C460.753 565.103 444.738 554.615 435.878 552.924Z" fill="#2C374C"/>
<path d="M441.283 580.656C437.051 579.848 432.673 580.757 429.113 583.181C425.553 585.606 423.103 589.346 422.299 593.581C421.495 597.817 422.407 602.199 424.83 605.765C427.255 609.33 430.994 611.786 435.226 612.594C444.063 614.279 462.82 610.437 464.489 601.629C466.16 592.82 450.119 582.341 441.283 580.656Z" fill="#F44D8D"/>
<path opacity="0.2" d="M430.991 578.692C426.759 577.886 422.383 578.794 418.821 581.219C415.261 583.642 412.811 587.384 412.007 591.618C411.204 595.855 412.115 600.237 414.54 603.801C416.964 607.368 420.703 609.824 424.935 610.63C433.771 612.317 452.528 608.474 454.199 599.665C455.868 590.858 439.851 580.383 430.991 578.692Z" fill="#2C374C"/>
<path d="M309.394 445.809C310.56 438.918 317.065 434.266 323.95 435.398L408.883 449.369L404.38 475.981L306.999 459.962L309.394 445.809Z" fill="#F44D8D"/>
<path fill-rule="evenodd" clip-rule="evenodd" d="M438.636 625.892L438.146 625.8L424.426 698.065L304.81 675.251C288.419 672.121 273.934 662.609 264.535 648.803C255.135 634.998 251.591 618.026 254.681 601.618L284.479 442.276L467.908 471.528L438.636 625.892Z" fill="#14E298"/>
<path d="M404.14 297.882C401.074 302.832 400.064 308.789 401.326 314.48C402.589 320.17 406.024 325.143 410.895 328.334C415.767 331.525 421.69 332.682 427.398 331.556C433.106 330.431 438.144 327.113 441.438 322.312C448.216 311.917 453.12 286.099 442.827 279.358C432.535 272.616 410.852 287.589 404.14 297.882Z" fill="#F44D8D"/>
<path opacity="0.2" d="M396.325 309.862C393.26 314.813 392.25 320.77 393.514 326.461C394.775 332.151 398.21 337.124 403.082 340.315C407.955 343.506 413.876 344.663 419.584 343.537C425.291 342.412 430.33 339.094 433.624 334.292C440.382 323.929 445.305 298.08 435.014 291.339C424.721 284.597 403.011 299.61 396.325 309.862Z" fill="#2C374C"/>
<path d="M439.729 318.726C435.955 321.9 433.578 326.434 433.109 331.351C432.641 336.268 434.12 341.175 437.227 345.014C440.333 348.854 444.82 351.319 449.721 351.878C454.621 352.438 459.542 351.047 463.425 348.006C471.452 341.434 482.141 322.018 475.608 313.893C469.074 305.767 447.854 312.116 439.729 318.726Z" fill="#F44D8D"/>
<path opacity="0.2" d="M430.272 326.291C426.498 329.463 424.119 333.993 423.646 338.908C423.176 343.823 424.65 348.729 427.752 352.57C430.853 356.41 435.334 358.88 440.232 359.445C445.13 360.011 450.051 358.629 453.938 355.595C461.964 349.023 472.663 329.614 466.131 321.489C459.598 313.363 438.325 319.678 430.272 326.291Z" fill="#2C374C"/>
<path d="M279.478 350.186C295.742 325.246 321.237 307.81 350.355 301.714C379.472 295.618 409.828 301.361 434.743 317.68C459.656 333.999 477.09 359.557 483.206 388.732C489.325 417.906 483.623 448.308 467.359 473.247L398.972 423.357L340.403 388.759L279.478 350.186Z" fill="#14E298"/>
<path d="M391.474 342.347C385.249 337.432 375.005 339.729 367.297 347.402L377.302 360.232L362.485 353.511C356.873 362.697 356.906 373.202 363.132 378.116C370.039 383.631 382.054 380.069 389.928 370.188C397.709 360.29 398.383 347.86 391.474 342.347Z" fill="#273350"/>
<path d="M365.692 345.29L377.302 360.231L360.025 352.425L365.692 345.29Z" fill="white"/>
<path d="M333.548 303.833C327.323 298.918 317.079 301.215 309.371 308.888L319.281 321.702L304.464 314.982C298.852 324.167 298.885 334.672 305.109 339.587C312.018 345.101 324.033 341.54 331.907 331.658C339.797 321.682 340.473 309.252 333.548 303.833Z" fill="#273350"/>
<path d="M307.766 306.776L319.297 321.607L302.099 313.911L307.766 306.776Z" fill="white"/>
<path d="M301.654 363.062L313.873 371.109L309.322 378.042C307.398 380.973 303.467 381.787 300.541 379.86L298.918 378.791C295.992 376.863 295.179 372.926 297.103 369.995L301.654 363.062Z" fill="white"/>
<path d="M313.873 371.109L326.092 379.158L321.541 386.09C319.617 389.021 315.686 389.834 312.76 387.908L311.137 386.838C308.211 384.912 307.398 380.973 309.322 378.042L313.873 371.109Z" fill="white"/>
<path d="M296.04 673.544L303.352 635.131C304.195 630.701 304.157 626.148 303.241 621.734C302.325 617.318 300.548 613.126 298.01 609.4C295.474 605.672 292.228 602.48 288.459 600.01C284.69 597.538 280.47 595.834 276.042 594.996L237.688 587.689L223.959 659.811L296.04 673.544Z" fill="#15BA7B"/>
<path d="M346.027 553.163C346.7 549.605 346.667 545.949 345.927 542.404C345.188 538.858 343.758 535.492 341.72 532.499C339.683 529.507 337.076 526.944 334.049 524.958C331.021 522.973 327.634 521.604 324.079 520.929L271.788 510.955L251.991 615.351C250.796 621.667 250.856 628.158 252.168 634.453C253.481 640.747 256.018 646.723 259.637 652.038C263.255 657.352 267.884 661.902 273.258 665.427C278.632 668.952 284.647 671.385 290.958 672.583L322.25 678.552L346.027 553.163Z" fill="#F9E428"/>
<path d="M267.472 549.692C276.86 547.926 286.497 547.941 295.881 549.733C305.277 551.561 314.26 555.097 322.385 560.165L267.472 549.692Z" fill="#C9B524"/>
<path d="M262.358 588.19C271.745 586.426 281.382 586.439 290.768 588.232C300.142 590.066 309.102 593.597 317.209 598.652L262.358 588.19Z" fill="#C9B524"/>
<path d="M263.4 627.851C272.786 626.082 282.425 626.1 291.808 627.904C301.18 629.737 310.142 633.266 318.252 638.313L263.4 627.851Z" fill="#C9B524"/>
<path d="M365.76 686.727L373.062 648.324C373.905 643.896 373.866 639.343 372.948 634.929C372.03 630.516 370.252 626.325 367.713 622.6C365.175 618.874 361.927 615.684 358.157 613.215C354.384 610.745 350.163 609.043 345.733 608.204L307.368 600.908L293.654 673.014L365.76 686.727Z" fill="#3FEFAC"/>
<path d="M307.893 609.659L305.865 609.273L307.439 600.994L309.468 601.38C309.872 601.456 310.258 601.61 310.603 601.836C310.947 602.061 311.245 602.352 311.476 602.693C311.708 603.033 311.87 603.415 311.954 603.82C312.036 604.224 312.038 604.638 311.96 605.043L311.573 607.071C311.408 607.891 310.934 608.619 310.25 609.1C309.565 609.581 308.722 609.781 307.893 609.659Z" fill="#EFEFEF"/>
<path d="M306.339 617.831L304.312 617.445L305.881 609.19L307.909 609.576C308.725 609.732 309.446 610.205 309.914 610.892C310.381 611.578 310.556 612.423 310.4 613.239L310.002 615.338C309.925 615.743 309.769 616.127 309.543 616.472C309.318 616.816 309.026 617.112 308.687 617.343C308.346 617.575 307.964 617.737 307.561 617.82C307.159 617.904 306.744 617.907 306.339 617.831Z" fill="#EFEFEF"/>
<path d="M304.767 626.098L302.74 625.712L304.311 617.447L306.339 617.832C307.154 617.99 307.872 618.464 308.34 619.15C308.806 619.836 308.983 620.679 308.831 621.495L308.446 623.523C308.278 624.341 307.802 625.063 307.119 625.543C306.434 626.022 305.593 626.221 304.767 626.098Z" fill="#EFEFEF"/>
<path d="M418.646 418.822L473.3 441.754L462.885 492.153L393.285 475.187L402.795 456.928L418.646 418.822Z" fill="#14E298"/>
<path fill-rule="evenodd" clip-rule="evenodd" d="M240.292 561.611C239.526 561.683 238.746 561.721 237.954 561.721C234.384 561.721 231.055 560.962 228.244 559.649C224.983 561.918 220.592 563.309 215.763 563.309C205.696 563.309 197.536 557.266 197.536 549.813C197.536 542.36 205.696 536.317 215.763 536.317C219.332 536.317 222.662 537.075 225.473 538.389C228.734 536.12 233.125 534.729 237.954 534.729C245.402 534.729 251.808 538.038 254.636 542.777C255.402 542.706 256.181 542.668 256.974 542.668C267.04 542.668 275.202 548.711 275.202 556.164C275.202 563.617 267.04 569.66 256.974 569.66C249.524 569.66 243.119 566.351 240.292 561.611ZM311.308 563.942C307.992 566.487 303.339 568.072 298.184 568.072C288.116 568.072 279.957 562.029 279.957 554.576C279.957 547.123 288.116 541.08 298.184 541.08C302.16 541.08 305.838 542.023 308.836 543.622C312.15 541.077 316.805 539.492 321.96 539.492C332.026 539.492 340.187 545.535 340.187 552.988C340.187 560.441 332.026 566.484 321.96 566.484C317.983 566.484 314.304 565.541 311.308 563.942ZM509.784 548.225C509.784 555.678 501.623 561.721 491.556 561.721C489.846 561.721 488.193 561.546 486.624 561.221C483.36 563.499 478.96 564.896 474.121 564.896C468.004 564.896 462.593 562.667 459.287 559.244C456.313 560.805 452.682 561.721 448.761 561.721C445.328 561.721 442.116 561.019 439.374 559.796C437.233 565.485 430.183 569.66 421.816 569.66C411.747 569.66 403.588 563.617 403.588 556.164C403.588 548.711 411.747 542.668 421.816 542.668C425.249 542.668 428.46 543.371 431.2 544.592C433.343 538.903 440.393 534.729 448.761 534.729C454.876 534.729 460.289 536.96 463.595 540.381C466.568 538.82 470.2 537.904 474.121 537.904C475.83 537.904 477.484 538.079 479.052 538.404C482.317 536.126 486.716 534.729 491.556 534.729C501.623 534.729 509.784 540.772 509.784 548.225Z" fill="url(#paint0_linear_39_732)"/>
<path d="M163.724 598.725C162.698 600.153 160.71 600.472 159.289 599.44L158.427 598.813C157.006 597.781 156.694 595.786 157.73 594.367L190.763 549.155C191.793 547.744 193.769 547.434 195.182 548.46L195.687 548.828C197.101 549.855 197.419 551.834 196.399 553.253L163.724 598.725Z" fill="#BC7400"/>
<path d="M542.909 598.725C543.935 600.153 545.922 600.472 547.342 599.44L548.205 598.813C549.626 597.781 549.939 595.786 548.902 594.367L515.87 549.155C514.839 547.744 512.864 547.434 511.45 548.46L510.944 548.828C509.532 549.855 509.213 551.834 510.234 553.253L542.909 598.725Z" fill="#BC7400"/>
<path d="M199.546 555.775C199.315 551.237 202.925 547.431 207.461 547.431H498.234C502.785 547.431 506.4 551.261 506.146 555.811L496.427 730.465C496.194 734.673 492.72 737.963 488.515 737.963H216.371C212.151 737.963 208.671 734.651 208.456 730.429L199.546 555.775Z" fill="#D88909"/>
<path d="M524.976 605.626C525.319 607.571 523.826 609.354 521.854 609.354H183.94C181.948 609.354 180.45 607.536 180.827 605.578L191.52 550.006C191.807 548.511 193.113 547.431 194.633 547.431H512.052C513.591 547.431 514.907 548.538 515.175 550.054L524.976 605.626Z" fill="#EB9509"/>
<path fill-rule="evenodd" clip-rule="evenodd" d="M181.628 601.415L191.099 552.194H497.427L503.257 570.28C508.215 585.659 496.766 601.415 480.632 601.415H181.628Z" fill="#EB9509"/>
<path opacity="0.2" d="M327.119 531.883L388.733 492.356L414.919 533.243L353.26 572.799C351.358 574.026 349.208 574.825 346.93 575.148C344.652 575.471 342.294 575.314 339.989 574.683C337.685 574.051 335.48 572.962 333.502 571.474C331.524 569.987 329.81 568.13 328.461 566.014L322.885 557.307C320.165 553.026 319.083 547.95 319.875 543.185C320.669 538.422 323.274 534.357 327.119 531.883Z" fill="#2C374C"/>
<path d="M322.808 527.444L385.701 487.096L411.895 527.992L348.93 568.386C346.854 569.726 344.53 570.638 342.091 571.066C339.652 571.497 337.146 571.433 334.717 570.884C332.289 570.334 329.986 569.307 327.94 567.864C325.895 566.421 324.149 564.587 322.8 562.47L317.243 553.795C314.502 549.509 313.55 544.327 314.593 539.386C315.635 534.444 318.592 530.15 322.808 527.444Z" fill="#3FEFAC"/>
<defs>
<linearGradient id="paint0_linear_39_732" x1="353.66" y1="534.729" x2="353.66" y2="569.66" gradientUnits="userSpaceOnUse">
<stop stop-color="white"/>
<stop offset="1" stop-color="#EE9D19"/>
</linearGradient>
<clipPath id="clip0_39_732">
<rect width="1525" height="915" fill="white" transform="translate(-51 1250) rotate(-90)"/>
</clipPath>
</defs>
</svg>