<svg width="333" height="67" viewBox="0 0 333 67" fill="none" xmlns="http://www.w3.org/2000/svg">
<mask id="mask0_39_51" style="mask-type:alpha" maskUnits="userSpaceOnUse" x="0" y="0" width="62" height="65">
<path fill-rule="evenodd" clip-rule="evenodd" d="M0 0.752686V64.0598H61.6758V0.752686H0Z" fill="#2C6AFF"/>
</mask>
<g mask="url(#mask0_39_51)">
<path fill-rule="evenodd" clip-rule="evenodd" d="M33.0498 45.0098H32.1589L17.0088 5.94841C15.7882 2.82758 12.7647 0.460449 9.39553 0.460449H8.17632C2.30868 0.460449 -1.64473 6.93542 0.672989 12.2919L21.0019 59.0647C22.2908 62.0439 25.2414 63.7675 28.5047 63.7675H35.1876C38.5735 63.7675 41.6088 62.1527 42.8173 59.0093L61.1814 12.2604C63.2243 6.94697 58.5757 1.4211 53.8571 1.4211C51.4979 1.4211 46.8661 3.5248 45.7782 6.87802L33.0498 45.0098Z" fill="#2C6AFF"/>
</g>
<mask id="mask1_39_51" style="mask-type:alpha" maskUnits="userSpaceOnUse" x="65" y="0" width="68" height="67">
<path fill-rule="evenodd" clip-rule="evenodd" d="M132.715 0H65.2871V66.753H132.715V0Z" fill="#2C6AFF"/>
</mask>
<g mask="url(#mask1_39_51)">
<path fill-rule="evenodd" clip-rule="evenodd" d="M111.024 48.1685C107.927 51.2876 103.92 52.8463 99.0018 52.8463C96.372 52.8463 94.04 52.363 92.0046 51.3931C89.9697 50.4245 88.2301 49.0537 86.7886 47.2844C85.3455 45.5138 84.2441 43.4497 83.4804 41.0894C82.7173 38.7303 82.3363 36.1579 82.3363 33.377C82.3363 29.9224 82.7593 26.973 83.6083 24.5275C84.4546 22.0835 85.6211 20.0608 87.1069 18.459C88.5893 16.8595 90.3507 15.6988 92.3857 14.9822C94.422 14.2664 96.6255 13.9076 99.0018 13.9076C104.345 13.9076 108.458 15.6988 111.342 19.2803C114.224 22.8641 115.668 27.5618 115.668 33.377C115.668 40.1214 114.119 45.0515 111.024 48.1685ZM123.937 9.16663C121.052 6.25923 117.511 4.00417 113.313 2.40231C109.115 0.802776 104.344 0 99.0012 0C93.9114 0 89.3104 0.738886 85.1968 2.21296C81.0822 3.68842 77.5423 5.85924 74.5744 8.72403C71.6046 11.5898 69.3145 15.0888 67.7048 19.2175C66.0928 23.348 65.2871 28.0671 65.2871 33.3767C65.2871 38.3508 66.0283 42.902 67.5141 47.0307C68.9965 51.1618 71.1809 54.6797 74.0662 57.5871C76.9475 60.4949 80.4904 62.7518 84.6885 64.3512C88.8864 65.9513 93.6579 66.7537 99.0012 66.7537C104.09 66.7537 108.69 66.015 112.804 64.5405C116.917 63.0672 120.458 60.8967 123.427 58.0293C126.395 55.166 128.685 51.6668 130.297 47.5364C131.908 43.4077 132.715 38.6869 132.715 33.3767C132.715 28.405 131.971 23.8537 130.489 19.7226C129.003 15.5939 126.818 12.0745 123.937 9.16663Z" fill="#2C6AFF"/>
</g>
<mask id="mask2_39_51" style="mask-type:alpha" maskUnits="userSpaceOnUse" x="134" y="0" width="68" height="67">
<path fill-rule="evenodd" clip-rule="evenodd" d="M201.773 0H134.346V66.753H201.773V0Z" fill="#2C6AFF"/>
</mask>
<g mask="url(#mask2_39_51)">
<path fill-rule="evenodd" clip-rule="evenodd" d="M193.033 0.751709H187.065C185.484 0.751709 184.001 2.02392 183.088 3.30725L173.595 16.9137C171.63 19.6762 167.493 19.7618 165.585 16.9605L156.604 3.32438C155.698 1.9943 154.187 0.751709 152.571 0.751709H144.934C140.967 0.751709 138.665 5.72346 140.981 8.92435L155.526 29.2812C156.749 30.971 156.747 33.3752 155.523 35.0632L139.473 56.7884C137.151 59.9889 139.452 64.0585 143.423 64.0585H149.442C151.029 64.0585 152.517 63.7514 153.429 62.4594L164.368 47.1849C166.315 44.4247 170.435 44.5552 172.362 47.3298L183.091 62.373C184.001 63.6817 185.499 64.0585 187.099 64.0585H194.431C198.364 64.0585 200.675 60.1251 198.427 56.9172L182.686 34.6784C181.511 33.0006 181.523 30.8859 182.716 29.2215L196.999 8.84982C199.295 5.6466 196.991 0.751709 193.033 0.751709Z" fill="#2C6AFF"/>
</g>
<mask id="mask3_39_51" style="mask-type:alpha" maskUnits="userSpaceOnUse" x="199" y="0" width="76" height="67">
<path fill-rule="evenodd" clip-rule="evenodd" d="M274.99 0H199.42V66.7533H274.99V0Z" fill="#2C6AFF"/>
</mask>
<g mask="url(#mask3_39_51)">
<path fill-rule="evenodd" clip-rule="evenodd" d="M263.126 45.7664V4.9841C263.126 3.20864 260.361 0.751709 258.575 0.751709H241.326C239.539 0.751709 239.531 3.20864 239.531 4.9841V12.4836C239.531 14.2591 239.539 14.8197 241.326 14.8197H242.403C244.189 14.8197 246.609 17.1368 246.609 18.9123V41.9351C246.609 42.3774 246.043 42.8206 245.862 43.2241C244.773 45.6533 242.879 47.7226 240.572 49.4325C238.068 51.2869 235.112 52.2135 231.974 52.2135C228.412 52.2135 226.476 51.075 224.822 48.8007C223.168 46.5251 223.015 42.8169 223.015 37.6743V4.9841C223.015 3.20864 220.471 0.751709 218.684 0.751709H201.434C199.648 0.751709 199.42 3.20864 199.42 4.9841V12.4836C199.42 14.2591 199.947 14.8197 201.733 14.8197H201.007C202.794 14.8197 204.139 17.1368 204.139 18.9123V41.0887C204.139 46.0628 205.076 50.1915 206.093 53.4774C207.111 56.765 208.766 59.3788 210.632 61.3163C212.498 63.2561 214.874 64.6469 217.547 65.488C220.217 66.3301 223.216 66.753 226.441 66.753C231.191 66.753 235.543 65.2237 239.445 63.1186C243.345 61.0126 246.299 59.3691 248.251 54.6797H248.759L250.99 61.9044C251.402 63.2618 252.661 64.0585 254.087 64.0585H268.279C270.066 64.0585 272.564 63.5435 272.564 61.7682V54.2685C272.564 52.4932 270.066 49.9902 268.279 49.9902H265.044C263.258 49.9902 263.126 49.6154 263.126 47.8401V45.7664Z" fill="#2C6AFF"/>
</g>
<mask id="mask4_39_51" style="mask-type:alpha" maskUnits="userSpaceOnUse" x="274" y="0" width="59" height="67">
<path fill-rule="evenodd" clip-rule="evenodd" d="M333 0H274.734V66.7533H333V0Z" fill="#2C6AFF"/>
</mask>
<g mask="url(#mask4_39_51)">
<path fill-rule="evenodd" clip-rule="evenodd" d="M329.883 37.0428C327.803 34.6847 325.24 32.7665 322.186 31.2906C319.133 29.817 315.781 28.6161 312.135 27.6878C308.489 26.761 305.138 25.8976 302.084 25.0961C299.032 24.2957 296.467 23.4327 294.388 22.5036C292.308 21.5776 291.271 20.3546 291.271 18.8374C291.271 16.8995 292.373 15.4676 294.579 14.5393C296.784 13.6134 299.668 13.1486 303.23 13.1486C305.18 13.1486 307.151 13.3601 309.146 13.7805C311.138 14.2032 313.046 14.7504 314.87 15.4245C316.694 16.1004 318.432 16.837 320.086 17.6365C320.166 17.6754 320.248 17.7143 320.326 17.7532C322.729 18.9291 325.632 18.1171 327.041 15.8523L328.852 12.9388C330.334 10.5555 329.633 7.42451 327.261 5.91064C327.245 5.89996 327.228 5.88978 327.211 5.87917C325.557 4.82637 323.563 3.87777 321.233 3.03425C318.898 2.19306 316.163 1.47638 313.027 0.885183C309.886 0.297221 306.238 0 302.084 0C298.184 0 294.559 0.422685 291.208 1.26481C287.856 2.10832 284.974 3.34998 282.558 4.99395C280.139 6.63748 278.231 8.64025 276.831 10.9995C275.433 13.3601 274.734 16.1004 274.734 19.2171C274.734 23.0101 275.771 26.1068 277.849 28.5091C279.927 30.9114 282.492 32.8925 285.547 34.4511C288.599 36.0124 291.949 37.2323 295.598 38.1175C299.244 39.0026 302.594 39.8681 305.648 40.7092C308.7 41.5526 311.263 42.4795 313.344 43.4911C315.422 44.5021 316.461 45.8515 316.461 47.5364C316.461 49.7289 315.485 51.2873 313.535 52.2141C311.583 53.1423 309.253 53.6049 306.538 53.6049C303.994 53.6049 301.427 53.2889 298.841 52.6567C296.253 52.0249 293.815 51.2462 291.525 50.3173C289.235 49.3915 287.178 48.3585 285.356 47.2203C285.295 47.1823 285.234 47.1449 285.175 47.1072C282.761 45.5925 279.579 46.2828 278.044 48.6735L275.899 52.0132C274.364 54.4006 275.057 57.5661 277.446 59.1107C279.936 60.7215 282.826 62.1944 286.12 63.5288C291.418 65.6789 297.715 66.7537 305.012 66.7537C314.255 66.7537 321.233 64.9203 325.939 61.2532C330.644 57.5868 333 52.5522 333 46.1459C333 42.4378 331.959 39.4035 329.883 37.0428Z" fill="#2C6AFF"/>
</g>
</svg>